<svg xmlns="http://www.w3.org/2000/svg" width="48" height="48" viewBox="0 0 48 48" role="img" aria-labelledby="title">
  <title id="title">GlucoStride Android icon, mint Strider on navy</title>
  <path fill="#101B24" d="M0 0 H48 V48 H0 Z"/>
  <g transform="translate(3.075 -1.03125) scale(0.19875)" color="#6EE7C2">
    <path d="M100 118 L78 153 H43 L27 161 M128 117 L153 140 L139 175 H176" fill="none" stroke="currentColor" stroke-width="20" stroke-linecap="round" stroke-linejoin="round"/>
    <path d="M121 15 C114 37 79 55 73 81 C65 108 82 130 108 130 C137 130 157 109 153 86 C149 64 129 37 121 15 Z" fill="currentColor"/>
    <path d="M26 220 C60 229 89 224 111 211 C134 197 158 195 180 202" fill="none" stroke="currentColor" stroke-width="9" stroke-linecap="round"/>
  </g>
</svg>
